<?xml version="1.0" standalone="no"?>
<!DOCTYPE svg PUBLIC "-//W3C//DTD SVG 20010904//EN"
 "http://www.w3.org/TR/2001/REC-SVG-20010904/DTD/svg10.dtd">
<svg version="1.0" xmlns="http://www.w3.org/2000/svg"
 width="1280.000000pt" height="960.000000pt" viewBox="0 0 1280.000000 960.000000"
 preserveAspectRatio="xMidYMid meet">
<metadata>
Created by potrace 1.15, written by Peter Selinger 2001-2017
</metadata>
<g transform="translate(0.000000,960.000000) scale(0.100000,-0.100000)"
fill="#000000" stroke="none">
<path d="M4297 8339 c-116 -11 -213 -35 -262 -63 -22 -13 -96 -47 -165 -76
-343 -143 -578 -297 -790 -516 -274 -284 -459 -633 -536 -1012 -13 -68 -27
-159 -31 -203 -6 -82 -20 -106 -46 -80 -15 15 -43 14 -60 -3 -7 -8 -32 -20
-55 -27 -54 -16 -59 -34 -22 -69 27 -25 60 -117 274 -752 206 -611 242 -726
231 -741 -24 -33 13 -102 45 -82 5 3 35 -1 67 -9 32 -8 114 -23 183 -32 91
-12 134 -23 160 -39 34 -22 2194 -2105 2188 -2110 -2 -2 -99 22 -217 51 -226
58 -306 71 -364 60 -43 -8 -52 -28 -49 -106 l3 -55 -19 41 c-11 23 -34 49 -54
61 -66 39 -220 80 -388 103 -176 23 -781 72 -972 77 -168 5 -208 9 -208 20 0
7 -6 24 -14 36 -7 12 -21 87 -30 167 -35 299 -133 649 -249 890 -186 387 -444
727 -773 1018 -70 61 -84 69 -94 57 -10 -12 -10 -18 0 -30 10 -12 11 -48 7
-143 -6 -147 -34 -256 -96 -380 -46 -92 -128 -205 -141 -197 -18 11 -23 -25
-6 -38 41 -31 45 -288 6 -442 -23 -90 -64 -185 -79 -185 -6 0 -11 -9 -11 -20
0 -13 7 -20 18 -20 10 0 47 -24 83 -54 147 -121 254 -286 310 -477 17 -59 23
-115 29 -284 10 -240 29 -338 102 -504 94 -215 263 -413 413 -487 44 -21 84
-44 88 -52 5 -7 16 -11 25 -8 26 8 143 -28 154 -47 5 -9 14 -17 21 -17 14 0
107 291 142 445 29 130 61 350 71 488 4 54 11 100 15 103 5 3 9 17 9 31 0 20
4 24 18 20 169 -55 225 -58 276 -18 45 36 96 46 172 32 75 -14 98 -31 128 -90
28 -54 49 -66 176 -96 110 -26 189 -65 235 -116 38 -42 67 -84 248 -359 45
-67 122 -165 188 -235 154 -166 213 -258 172 -271 -10 -3 -26 -10 -36 -15 -52
-28 -456 -38 -465 -11 -2 7 -22 12 -52 12 -39 0 -49 -4 -53 -20 -5 -19 -14
-20 -234 -20 -240 0 -277 6 -287 44 -3 11 -1 94 4 185 13 218 0 763 -17 768
-7 3 -17 -7 -23 -22 -14 -36 -13 -535 1 -763 12 -182 11 -183 -10 -198 -25
-18 -27 -58 -3 -76 16 -12 17 -46 17 -468 0 -250 4 -468 8 -483 4 -16 13 -27
20 -24 9 3 12 115 11 483 l-2 480 26 12 c18 8 96 12 259 12 200 0 233 -2 233
-15 0 -19 96 -22 103 -2 3 9 55 12 218 11 177 -1 219 -3 239 -16 14 -9 53 -19
87 -23 34 -4 66 -12 71 -18 5 -7 19 -40 31 -74 79 -223 233 -361 476 -424 171
-46 289 -53 846 -51 997 2 1530 48 1974 168 458 124 673 300 746 610 12 49 32
109 44 134 13 25 33 94 44 154 11 59 26 115 33 123 19 23 95 12 146 -22 38
-25 45 -27 58 -14 12 13 12 21 -2 62 -8 25 -14 54 -12 63 2 10 30 36 63 59 38
26 81 69 119 119 l60 79 11 -69 c7 -38 15 -121 19 -184 10 -163 35 -416 47
-478 11 -55 32 -76 72 -70 53 7 63 72 97 626 15 248 23 318 35 332 17 19 20
46 5 55 -16 10 -12 22 9 28 11 2 27 19 36 37 16 32 16 35 -5 78 -18 34 -23 62
-23 123 -1 69 3 86 30 138 l31 61 -18 38 c-10 21 -30 44 -45 50 -24 11 -25 14
-11 28 20 19 20 24 2 50 -19 26 -9 41 29 46 23 2 35 12 54 46 21 39 22 48 12
82 -17 57 -68 97 -136 105 -72 9 -207 -8 -268 -34 -102 -44 -191 -163 -216
-291 -6 -30 -15 -127 -20 -216 -6 -88 -12 -167 -15 -175 -2 -8 -12 -48 -20
-89 l-16 -75 -143 -2 c-78 -1 -231 -7 -340 -14 -109 -6 -200 -9 -203 -7 -2 3
498 481 1112 1064 1020 968 1121 1060 1168 1076 45 15 211 50 304 65 40 6 56
32 38 59 -11 17 19 111 238 752 200 580 257 736 275 748 14 10 21 24 19 37 -3
19 -14 24 -93 37 -126 21 -133 28 -146 136 -52 458 -259 882 -595 1218 -192
193 -351 297 -679 446 -93 43 -199 91 -235 108 -78 36 -137 49 -290 62 -210
18 -511 9 -660 -21 -99 -20 -566 -238 -715 -334 -384 -247 -672 -604 -828
-1025 -46 -125 -94 -319 -110 -450 l-13 -105 -53 -8 c-35 -5 -58 -3 -67 4 -17
14 -54 2 -54 -17 0 -9 -11 -14 -34 -14 -44 0 -66 9 -66 26 0 11 -18 14 -75 14
-57 0 -75 -3 -75 -14 0 -33 -127 -36 -170 -4 -23 17 -33 19 -42 10 -7 -7 -24
-12 -39 -12 -26 0 -27 2 -34 73 -44 462 -269 925 -612 1258 -205 199 -402 326
-728 467 -88 38 -176 79 -195 90 -47 28 -141 49 -280 61 -132 13 -414 12 -543
0z m2414 -1990 c24 -13 16 -29 -16 -29 -26 0 -40 14 -30 30 8 13 21 13 46 -1z
m559 1 c-8 -5 -19 -10 -25 -10 -5 0 -3 5 5 10 8 5 20 10 25 10 6 0 3 -5 -5
-10z m90 -10 c0 -21 -17 -19 -55 7 -18 12 -16 13 18 13 30 0 37 -4 37 -20z
m-4860 -5 c0 -10 -10 -15 -26 -15 -22 0 -25 2 -14 15 7 8 19 15 26 15 8 0 14
-7 14 -15z m9115 5 c23 -6 12 -8 -43 -9 -47 -1 -71 3 -67 9 7 11 65 11 110 0z
m-9190 -10 c18 -8 17 -9 -7 -9 -16 -1 -28 4 -28 9 0 12 8 12 35 0z m4335 0 c0
-5 -4 -10 -10 -10 -5 0 -10 5 -10 10 0 6 5 10 10 10 6 0 10 -4 10 -10z m176
-35 c15 -14 33 -25 40 -25 9 0 11 -16 8 -57 -2 -32 -6 -401 -8 -820 -5 -757
-5 -762 -26 -783 l-21 -21 -33 36 c-28 29 -40 35 -75 35 -93 0 -136 -104 -70
-169 17 -17 37 -31 45 -31 8 0 14 -5 14 -11 0 -19 -136 -276 -181 -343 -245
-362 -540 -634 -834 -771 -132 -62 -173 -76 -181 -64 -17 28 -343 1024 -336
1030 4 4 61 30 127 59 161 71 295 146 414 235 l98 73 93 12 c50 7 132 20 182
30 49 10 96 16 103 14 18 -7 55 31 55 56 0 11 -5 28 -11 38 -9 15 32 153 220
738 127 395 235 720 240 722 5 2 19 12 32 23 30 26 72 24 105 -6z m280 19 c17
-4 32 -42 88 -217 347 -1093 386 -1220 378 -1230 -22 -28 -23 -66 -2 -87 11
-11 26 -20 34 -20 8 0 17 -7 20 -15 4 -10 17 -15 38 -14 18 1 76 -5 128 -14
52 -9 119 -19 147 -22 37 -5 64 -16 90 -37 77 -62 266 -180 375 -233 61 -31
113 -57 115 -59 4 -3 -287 -1056 -294 -1065 -6 -9 -143 55 -238 111 -322 190
-637 538 -819 905 -36 73 -66 134 -66 136 0 3 14 10 30 17 42 17 60 47 60 96
0 35 -5 47 -31 68 -41 35 -100 36 -134 1 -14 -13 -25 -29 -25 -35 0 -16 -18
-12 -38 8 -18 18 -19 60 -26 840 l-8 820 22 7 c12 4 31 16 41 26 19 19 71 25
115 13z m105 -118 c13 -44 25 -74 27 -66 1 8 -7 42 -18 74 -26 77 -25 86 6 86
l26 0 -2 -102 c-1 -67 6 -143 19 -217 11 -63 19 -116 17 -118 -1 -2 -19 50
-40 114 -20 65 -52 166 -70 225 -33 105 -34 106 -11 96 17 -8 28 -29 46 -92z
m4354 84 c-3 -4 -115 -331 -251 -726 -135 -396 -249 -722 -253 -727 -10 -10
-96 21 -116 43 -15 17 -15 22 -1 72 9 29 42 91 74 138 126 184 218 373 280
575 54 176 92 399 92 542 l0 72 48 6 c26 4 63 10 82 15 37 7 54 4 45 -10z
m-4900 -13 c-12 -48 -175 -531 -169 -502 3 17 12 61 20 99 8 38 19 103 24 145
8 61 58 241 77 274 2 4 15 7 29 7 20 0 23 -4 19 -23z m-4338 7 c14 -4 27 -20
37 -48 8 -22 15 -33 15 -24 1 9 -3 28 -9 42 -8 21 -6 26 6 26 12 0 15 -12 14
-57 -3 -110 35 -357 76 -499 50 -173 113 -324 208 -494 14 -25 48 -114 75
-199 48 -148 49 -155 33 -177 -9 -13 -22 -24 -27 -24 -6 0 -118 323 -249 718
-131 394 -241 723 -244 730 -4 13 27 16 65 6z m4269 -9 c-3 -9 -13 -41 -22
-71 -9 -31 -18 -53 -21 -51 -3 3 -2 35 2 71 6 57 10 66 27 66 14 0 18 -5 14
-15z m-278 -1078 c-103 -322 -113 -346 -128 -332 -16 14 -13 28 41 201 33 105
82 234 113 297 30 62 59 129 66 150 7 21 14 37 16 35 2 -2 -47 -160 -108 -351z
m1237 -101 c36 -115 64 -210 62 -212 -13 -14 -38 48 -112 279 -47 146 -85 270
-85 274 2 32 81 -169 135 -341z m155 -118 l60 -73 -58 -12 c-31 -7 -62 -12
-68 -13 -8 0 -114 319 -114 345 0 3 27 -34 60 -84 33 -49 87 -123 120 -163z
m-1496 66 c-25 -82 -53 -155 -63 -162 -11 -9 -31 -11 -66 -6 -27 3 -52 8 -54
10 -2 1 27 40 63 86 37 46 88 115 114 155 26 39 48 70 49 69 2 -1 -18 -69 -43
-152z m-3466 73 c10 -18 58 -81 105 -139 l85 -106 -39 -6 c-80 -13 -84 -8
-130 138 -23 72 -43 134 -46 139 -2 4 -2 7 0 7 3 0 14 -15 25 -33z m8180 -179
c-9 -32 -50 -69 -62 -57 -3 2 12 25 32 51 20 26 37 46 39 45 1 -2 -3 -19 -9
-39z m-3058 -134 c54 -55 61 -66 40 -61 -14 3 -65 11 -113 18 -56 8 -95 19
-109 31 -12 10 -25 18 -30 18 -4 0 -8 9 -8 19 0 14 11 21 48 29 96 20 102 18
172 -54z m-1800 41 c25 -4 58 -14 73 -22 15 -7 32 -11 37 -8 6 3 10 3 10 -2 0
-4 -15 -18 -33 -30 -29 -20 -96 -35 -257 -58 l-45 -6 70 71 c41 42 76 68 85
66 8 -3 35 -8 60 -11z m4815 -5 c3 -5 20 -10 37 -10 36 0 108 -20 108 -30 0
-21 -47 -36 -188 -60 -65 -11 -102 -7 -102 13 0 6 19 31 42 54 42 42 88 57
103 33z m-7845 -65 c35 -36 59 -65 52 -65 -24 0 -218 31 -253 40 -20 6 -44 19
-54 30 -18 19 -17 20 4 20 12 0 32 5 44 12 28 15 73 26 112 27 25 1 43 -11 95
-64z m4600 45 c0 -19 -20 -27 -33 -13 -8 7 11 33 24 33 5 0 9 -9 9 -20z m3029
-164 c-297 -286 -2217 -2101 -2234 -2112 -13 -9 -33 -14 -45 -12 -18 3 20 57
257 367 l278 365 85 49 c108 64 203 159 253 254 21 41 46 75 57 78 11 3 33 20
50 36 36 36 40 87 11 128 l-20 27 91 120 c49 65 102 132 117 147 35 38 177
123 243 146 84 30 302 124 432 186 136 65 246 130 329 193 79 60 151 81 96 28z
m-3930 -7 c37 -13 58 -44 36 -53 -20 -7 -19 -45 1 -53 13 -5 12 -9 -6 -28 -40
-43 -119 -24 -141 32 -17 46 11 87 77 113 1 0 15 -5 33 -11z m409 -12 c38 -31
34 -109 -6 -134 -26 -16 -90 -8 -113 13 -17 16 -18 19 -4 26 20 12 20 58 0 58
-13 0 -13 3 -3 20 24 38 91 47 126 17z m-3773 -125 c66 -42 308 -159 438 -213
l122 -50 231 -231 231 -230 -5 -44 c-6 -54 13 -86 67 -114 22 -11 43 -30 47
-42 15 -49 88 -150 145 -201 64 -58 179 -125 274 -159 33 -12 79 -37 103 -56
25 -21 135 -163 270 -349 125 -172 228 -317 230 -322 2 -5 -25 -2 -60 6 -58
13 -69 20 -148 97 -47 46 -494 478 -995 961 -1131 1091 -1046 1006 -950 947z
m3465 8 c20 -20 20 -26 14 -911 -4 -489 -11 -892 -16 -895 -12 -7 -10 -108 2
-120 7 -7 9 -77 8 -190 l-3 -179 -33 -3 c-27 -3 -34 1 -42 23 -9 23 -14 26
-52 23 -36 -2 -44 -7 -46 -25 -2 -13 -8 -23 -13 -23 -5 0 -9 -7 -9 -15 0 -12
-18 -15 -104 -15 -71 0 -106 4 -108 12 -5 15 -93 15 -112 -1 -18 -15 -56 -5
-56 15 0 8 9 23 20 34 11 11 20 32 20 46 0 39 -23 56 -72 52 -36 -2 -44 -7
-46 -25 -2 -13 -9 -23 -16 -23 -9 0 -15 27 -20 92 -7 89 -11 107 -21 97 -2 -3
-5 -59 -7 -126 -3 -130 -6 -135 -53 -83 -32 36 -102 80 -168 107 -34 14 -70
34 -80 44 -10 10 -24 19 -31 19 -9 0 -58 132 -144 388 -72 213 -133 394 -137
403 -5 12 8 21 57 39 337 122 691 429 960 832 25 38 78 131 118 209 52 103 80
145 102 159 16 10 36 27 44 39 18 26 19 26 44 1z m182 -13 c18 -19 40 -38 49
-43 9 -5 37 -52 61 -104 61 -129 117 -221 228 -375 107 -147 200 -249 339
-369 161 -139 299 -231 432 -287 41 -17 77 -34 80 -38 4 -3 -41 -177 -100
-386 -122 -435 -95 -390 -253 -430 -96 -25 -136 -46 -218 -116 -90 -77 -139
-95 -328 -124 -147 -22 -180 -20 -184 8 -3 19 -10 22 -51 25 -38 3 -48 0 -54
-15 -9 -23 -23 -33 -50 -33 l-23 0 0 189 c0 116 4 192 10 196 12 7 13 102 2
109 -5 3 -12 406 -16 895 -7 851 -6 891 11 910 24 26 26 26 65 -12z m1584
-166 c38 -16 99 -43 136 -60 36 -17 72 -31 80 -31 7 0 21 -7 30 -14 16 -12 6
-45 -138 -432 -118 -316 -167 -436 -201 -489 -25 -38 -46 -71 -47 -72 -3 -3
-120 25 -182 43 l-51 14 89 318 c173 620 210 752 213 752 1 0 33 -13 71 -29z
m-3292 -533 c92 -271 169 -503 172 -515 5 -18 1 -25 -21 -33 -15 -6 -29 -9
-31 -7 -6 5 -354 1003 -354 1013 0 9 39 29 61 33 4 1 82 -221 173 -491z m-76
-40 c95 -271 173 -500 174 -508 2 -10 -17 -18 -75 -29 -67 -13 -80 -13 -91 0
-8 8 -136 194 -286 414 l-272 399 38 33 c85 71 273 175 330 182 6 0 88 -221
182 -491z m-1166 418 c159 -90 280 -194 348 -297 26 -38 28 -46 16 -64 -7 -11
-18 -20 -23 -20 -5 0 -108 96 -228 213 -120 116 -212 212 -204 212 8 0 49 -20
91 -44z m4936 -51 c11 -10 -22 -70 -193 -340 -113 -180 -204 -329 -202 -331 2
-2 97 144 212 326 l207 330 37 -29 c20 -16 59 -53 88 -83 91 -94 124 -160 88
-175 -18 -6 -45 -54 -45 -78 0 -9 -114 -133 -252 -276 l-253 -260 -85 7 c-47
3 -87 8 -89 10 -6 6 39 129 64 172 14 24 23 47 20 52 -3 5 205 579 270 742 6
15 13 13 63 -18 32 -20 63 -42 70 -49z m512 -68 c0 -1 -30 -32 -67 -67 l-68
-65 65 68 c60 62 70 72 70 64z m-4575 -418 c143 -210 268 -395 278 -410 l19
-29 -105 0 -106 0 -236 326 c-130 179 -239 332 -242 340 -7 19 100 154 123
154 5 0 126 -172 269 -381z m4459 261 c-26 -33 -51 -57 -56 -54 -8 5 88 114
99 114 2 0 -18 -27 -43 -60z m-4722 -237 c75 -104 179 -248 232 -320 53 -73
92 -133 88 -132 -4 0 -106 96 -226 214 l-220 213 17 26 c27 41 22 90 -13 124
-28 29 -40 62 -22 62 5 0 70 -84 144 -187z m4559 104 c-14 -15 -21 -17 -21 -8
0 21 33 56 38 41 3 -7 -5 -22 -17 -33z m127 21 c21 -21 15 -82 -10 -105 -24
-21 -93 -29 -104 -12 -5 9 82 129 95 129 4 0 12 -5 19 -12z m-4882 -18 c18 0
36 5 39 11 5 7 14 4 26 -7 24 -21 26 -86 3 -104 -13 -11 -24 -5 -74 45 -33 32
-57 63 -53 68 3 5 10 4 16 -2 6 -6 26 -11 43 -11z m4797 -30 c-39 -50 -55 -57
-61 -26 -5 25 46 76 76 76 23 0 22 -1 -15 -50z m-4806 -32 c29 -29 53 -55 53
-59 0 -6 -58 -6 -93 0 -24 4 -42 111 -19 111 4 0 30 -23 59 -52z m4743 -35 c0
-7 -66 -100 -146 -206 l-145 -192 -77 -27 c-42 -15 -90 -28 -105 -28 -26 0 -4
26 210 244 178 182 241 242 251 234 6 -6 12 -17 12 -25z m45 -29 c20 -15 19
-16 -15 -82 -41 -81 -150 -193 -232 -239 -32 -18 -58 -30 -58 -27 0 8 274 364
280 364 3 0 14 -7 25 -16z m-4505 -219 c113 -113 200 -205 195 -205 -6 0 -62
25 -125 56 -96 47 -127 69 -186 128 -83 84 -149 200 -124 216 8 5 20 10 25 10
6 0 102 -92 215 -205z m-2580 71 c132 -24 150 -28 150 -36 0 -5 -24 -44 -54
-87 -94 -136 -174 -322 -191 -445 -4 -27 -10 -48 -14 -48 -4 0 -14 33 -24 73
-37 160 -155 350 -293 474 -41 36 -72 69 -69 72 24 23 356 21 495 -3z m320
-90 c271 -115 451 -285 520 -492 17 -49 20 -75 14 -123 -4 -36 -12 -62 -20
-65 -19 -7 -18 -46 1 -46 11 0 15 -11 15 -38 0 -21 3 -42 6 -45 4 -4 6 -47 5
-97 -5 -215 -113 -507 -269 -722 -94 -131 -86 -127 -178 -83 -61 30 -97 57
-170 129 -135 134 -232 293 -287 471 -48 153 -52 182 -52 380 1 172 3 200 27
293 35 136 92 261 173 383 67 101 67 101 102 94 19 -3 70 -21 113 -39z m6018
-139 c-6 -20 -17 -37 -25 -37 -10 0 -8 11 9 39 12 22 24 39 25 37 1 -1 -3 -19
-9 -39z m1120 -19 c64 -43 73 -61 50 -98 -10 -16 -10 -24 -1 -40 11 -16 10
-21 -7 -30 -11 -6 -31 -29 -45 -50 l-25 -39 24 -35 c49 -72 54 -213 11 -296
-19 -37 -11 -74 22 -100 21 -16 23 -22 13 -40 -10 -18 -8 -26 8 -43 20 -22 20
-24 1 -324 -19 -321 -36 -532 -45 -573 -11 -51 -58 -77 -83 -46 -28 33 -64
384 -65 632 -1 155 1 185 15 200 26 30 32 60 14 78 -37 36 -86 11 -100 -52 -8
-39 -39 -62 -93 -69 -46 -6 -66 10 -82 65 -15 56 -12 113 14 277 13 83 27 197
30 255 12 184 49 292 116 340 72 51 136 48 228 -12z m-1268 -10 c47 -11 90
-21 97 -22 7 -1 15 -5 19 -8 3 -4 -20 -79 -52 -167 l-59 -161 -158 -157 -158
-158 201 319 c111 175 199 320 197 322 -2 3 -101 -148 -218 -335 -118 -187
-215 -339 -216 -338 -1 2 159 578 197 709 10 35 12 37 38 27 15 -6 65 -20 112
-31z m258 -356 l-273 -360 -50 -4 c-27 -2 -51 -4 -53 -3 -1 1 28 82 65 181
l66 179 156 160 156 159 82 17 c44 9 89 22 99 27 11 6 20 9 22 7 2 -2 -119
-165 -270 -363z m-2998 -27 c70 -209 126 -381 125 -383 -1 -1 -17 20 -35 48
-18 28 -35 49 -37 46 -3 -3 5 -19 17 -35 12 -17 18 -31 14 -31 -4 0 5 -13 21
-30 l29 -30 -26 0 c-20 0 -29 7 -37 30 -6 19 -6 30 0 30 5 0 0 13 -12 29 -12
16 -18 34 -15 40 4 6 -1 23 -12 39 -14 21 -222 597 -222 616 0 6 32 14 49 12
9 -1 58 -131 141 -381z m-120 128 c46 -131 89 -253 96 -270 7 -18 11 -33 9
-33 -11 0 -345 504 -338 510 7 7 94 26 134 29 13 1 36 -54 99 -236z m3167 213
c1 -1 -61 -65 -138 -142 -76 -78 -139 -140 -139 -138 0 3 73 200 99 266 l10
27 83 -6 c46 -3 84 -6 85 -7z m-3232 -292 c106 -154 197 -295 203 -313 9 -25
-52 29 -269 241 -155 150 -294 291 -309 313 l-28 40 106 0 106 0 191 -281z
m4300 225 c0 -17 -33 -25 -47 -11 -6 6 -8 18 -5 26 8 19 52 6 52 -15z m-4063
-639 c9 -24 16 -45 15 -47 -2 -1 -34 6 -72 16 l-69 17 -203 279 c-112 154
-203 282 -203 285 0 2 116 -110 258 -250 205 -204 260 -264 274 -300z m2617
189 c-34 -90 -62 -165 -63 -166 -5 -6 -206 -15 -206 -9 0 9 323 346 327 342 2
-1 -25 -76 -58 -167z m-3943 -199 c86 -54 189 -209 232 -350 57 -189 22 -239
-89 -127 -48 48 -253 336 -288 404 -28 55 -28 91 1 102 29 11 103 -4 144 -29z
m5382 23 c-4 -22 -38 -30 -49 -12 -11 19 -2 29 27 29 19 0 25 -5 22 -17z
m-525 -142 c32 -55 74 -81 128 -81 27 0 49 -4 49 -9 0 -17 -59 -69 -104 -91
-123 -59 -227 -1 -185 104 21 52 61 106 78 106 9 0 24 -13 34 -29z m-3023 -96
c0 -8 5 -24 12 -35 15 -24 6 -34 -21 -25 -16 5 -21 15 -21 41 0 24 5 34 15 34
8 0 15 -7 15 -15z m-3193 -147 c-3 -8 -6 -5 -6 6 -1 11 2 17 5 13 3 -3 4 -12
1 -19z"/>
</g>
</svg>
